<svg xmlns="http://www.w3.org/2000/svg" viewBox="0 0 1673.72 964.9"><path fill="#2d5daa" d="M6.72 213.9h147v510h-147zm375 1v86h2c30.09-65.2 72.22-96.28 146.5-96.28 48.14 0 95.27 15 125.39 56.18 28.1 38.05 28.1 102.19 28.1 148.35V723.9h-148v-274c0-52.1 7-128.41-67.05-128.41-26 0-50 15.1-62 38.15-15 29.12-17 58.21-17 90.26v274h-148v-510h140m532.06 510h-147v-510h147l.04 510m403.46-315.82c0-46.17-24.11-91.32-77.27-91.32-81.23 0-91.29 80.3-91.29 145.46 0 62.23 1 150.55 85.27 150.55 52.18 0 78.29-41.15 83.29-88.32l140.49 8c-12 126.37-107.35 201.68-231.79 201.68-154.54 0-245.82-109.34-245.82-259.92 0-156.51 94.29-269.89 254.88-269.89 118.37 0 212.7 76.28 222.73 195.66l-140.49 8.05m205.5-194.13h147v510h-147zm-1370 671.89q0 24-19.81 39-22.38 16.77-56.38 16.79-32.82 0-54.85-17Q2.57 909.8 2.55 886.81q0-22.69 19.32-37.66 22-16.95 54.66-17 38.6 0 61.66 21.17l-31.09 10.95a53.12 53.12 0 0 0-29.37-8.73q-20.52 0-33 8.88t-12.45 22.39c0 9 4.14 16.51 12.37 22.46s18.89 9 31.88 9q33 0 44.58-18.34H70.72v-22h82v8m196 52.97h-34.37l-24.66-34h-46v34h-30v-105h88.82q18.81 0 30.35 9.83t11.53 25.56q0 23.55-22 32.12L349.2 939m-48-57.12c4.63 0 8.32-1.19 11-3.5a11.44 11.44 0 0 0 4.08-9.22c0-7.5-5.09-11.28-15.3-11.28h-56.3v24zm247.5 4.48q0 23.79-19 38.65-21.85 17.07-54.7 17.08T420.17 925q-19-14.89-19-38.65 0-23.43 19.14-38.45 21.74-17.1 54.71-17.1 32.81 0 54.52 17.1 19.16 15 19.15 38.45m-30.92 0c0-9.42-3.91-17.05-11.74-23s-18.18-8.84-31.1-8.84-23.47 3-31.33 8.84-11.83 13.54-11.83 23c0 9.65 3.89 17.36 11.64 23.23s18.28 8.75 31.52 8.75 23.58-2.92 31.27-8.75 11.58-13.58 11.58-23.22zm221.75 16.94q0 17.4-17.44 28-18.08 11.13-48.37 11.16-30.44 0-48.39-11.12-17.57-10.61-17.6-28V833.9h30v66c0 5.79 3.1 10.36 9.3 13.67s15.05 5 26.64 5 20.48-1.64 26.72-5 9.34-7.88 9.34-13.67v-66h30v69M894 833.81q18.82 0 30.35 9.83t11.53 25.56q0 16.9-11.36 26.29c-7.57 6.28-18.28 9.41-32.06 9.41h-56.74v34h-30v-105h88m-1.49 48c4.63 0 8.32-1.19 11-3.5a11.44 11.44 0 0 0 4.08-9.22c0-7.5-5.09-11.28-15.28-11.28h-56.31v24zm132.36 62.29c0 13.78-7.82 20.71-23.45 20.71h-7.42v-14h1.86c8.09 0 12.14-2.13 12.14-6.45v-5.55h-14v-24h31v30m154-111h30v105h-30zm230 105h-35.56l-65.95-69h-.49v69h-30v-105h35.37l66.63 69.37V833.9h30v105m206.45-75.08l-27.34 9.38q-18.66-18.62-42.92-18.64-20.51 0-32.31 8.65t-11.79 23c0 9.44 4 17.15 12 23s18.54 8.9 31.78 8.9q25.65 0 43.75-19.32L1613.8 912q-23.79 29.9-69.23 29.9-33 0-54.69-17.08-19-15.09-19-38.64 0-23.28 19.14-38.29 21.87-17.1 54.52-17.1 43.76 0 70.6 33m27.58 51.11h31v24h-31z"/><path d="M148.68 74.38A74.34 74.34 0 1 1 74.29 0a74.39 74.39 0 0 1 74.39 74.38m764.64 0A74.36 74.36 0 1 1 838.94 0a74.39 74.39 0 0 1 74.38 74.38m751.74 0A74.33 74.33 0 1 1 1590.67 0a74.38 74.38 0 0 1 74.39 74.38" fill="#a8aaad"/></svg>